<svg width="430" height="430" viewBox="0 0 430 430" fill="none" xmlns="http://www.w3.org/2000/svg">
<path d="M54.3 194.6V373.5" stroke="#121331" stroke-width="12" stroke-miterlimit="10" stroke-linecap="round" stroke-linejoin="round"/>
<path d="M374.9 194.6V375.6" stroke="#121331" stroke-width="12" stroke-miterlimit="10" stroke-linecap="round" stroke-linejoin="round"/>
<path d="M187.1 271.199C187.2 291.899 171.3 325.399 165.4 338.399C163.7 342.099 160.6 344.799 156.7 346.099C148.3 348.799 137 348.799 128.6 346.099C124.8 344.899 121.7 342.199 120 338.599C114 325.799 97.6998 292.199 97.5998 271.499C97.5998 271.499 89.3998 218.599 103.1 214.399C112.8 211.499 128.4 242.999 130.5 247.399C138.2 246.499 146.5 246.499 154.3 247.399C156.4 242.999 172 211.499 181.7 214.399C195.3 218.499 187.1 271.199 187.1 271.199Z" stroke="#121331" stroke-width="12" stroke-miterlimit="10" stroke-linecap="round" stroke-linejoin="round"/>
<path d="M146.1 321.5H138.2" stroke="#121331" stroke-width="17" stroke-miterlimit="10" stroke-linecap="round" stroke-linejoin="round"/>
<path d="M142.3 321.5V346.3" stroke="#121331" stroke-width="12" stroke-miterlimit="10" stroke-linecap="round" stroke-linejoin="round"/>
<path d="M28 172.8L214.8 54L401.6 172.8" stroke="#08A88A" stroke-width="12" stroke-miterlimit="10" stroke-linecap="round" stroke-linejoin="round"/>
<path d="M28 211.3L214.8 92.5L401.6 211.3" stroke="#08A88A" stroke-width="12" stroke-miterlimit="10" stroke-linecap="round" stroke-linejoin="round"/>
<path d="M28 172.801V211.301" stroke="#08A88A" stroke-width="12" stroke-miterlimit="10" stroke-linecap="round" stroke-linejoin="round"/>
<path d="M401.6 172.801V211.301" stroke="#08A88A" stroke-width="12" stroke-miterlimit="10" stroke-linecap="round" stroke-linejoin="round"/>
<path d="M333.7 290.101C333.8 290.901 333.8 291.801 333.8 292.601C333.8 317.901 311.7 346.701 284.5 346.701C257.3 346.701 235.2 317.801 235.2 292.601C235.2 291.801 235.3 290.901 235.3 290.101C233.8 286.501 218.8 249.201 228.4 243.001C235.4 238.401 252.4 252.901 261.9 262.001C268.7 259.501 276.3 258.101 284.4 258.101C292.5 258.101 300.2 259.501 306.9 262.001C316.4 252.901 333.4 238.401 340.4 243.001C350.2 249.201 335.2 286.501 333.7 290.101Z" stroke="#121331" stroke-width="12" stroke-miterlimit="10" stroke-linecap="round" stroke-linejoin="round"/>
<path d="M239.3 312L222.8 314.4" stroke="#121331" stroke-width="12" stroke-miterlimit="10" stroke-linecap="round" stroke-linejoin="round"/>
<path d="M249.4 328.801L237.5 337.701" stroke="#121331" stroke-width="12" stroke-miterlimit="10" stroke-linecap="round" stroke-linejoin="round"/>
<path d="M329.9 312L346.3 314.3" stroke="#121331" stroke-width="12" stroke-miterlimit="10" stroke-linecap="round" stroke-linejoin="round"/>
<path d="M319.7 328.699L331.7 337.699" stroke="#121331" stroke-width="12" stroke-miterlimit="10" stroke-linecap="round" stroke-linejoin="round"/>
</svg>
